<?xml version="1.0" encoding="UTF-8" standalone="no"?>
<!-- Created with Inkscape (http://www.inkscape.org/) -->

<svg
   width="85.683044mm"
   height="150.54408mm"
   viewBox="0 0 85.683044 150.54408"
   version="1.1"
   id="svg1"
   xml:space="preserve"
   xmlns:inkscape="http://www.inkscape.org/namespaces/inkscape"
   xmlns:sodipodi="http://sodipodi.sourceforge.net/DTD/sodipodi-0.dtd"
   xmlns="http://www.w3.org/2000/svg"
   xmlns:svg="http://www.w3.org/2000/svg"><sodipodi:namedview
     id="namedview1"
     pagecolor="#ffffff"
     bordercolor="#000000"
     borderopacity="0.25"
     inkscape:showpageshadow="2"
     inkscape:pageopacity="0.0"
     inkscape:pagecheckerboard="0"
     inkscape:deskcolor="#d1d1d1"
     inkscape:document-units="mm" /><defs
     id="defs1" /><g
     inkscape:label="Layer 1"
     inkscape:groupmode="layer"
     id="layer1"
     transform="translate(-62.055833,-60.812536)"><g
       id="g299"
       transform="translate(0.94081573,-9.9368129)"
       inkscape:export-filename="g299.svg"
       inkscape:export-xdpi="96"
       inkscape:export-ydpi="96"><path
         style="fill:#069fde"
         d="m 103.17808,220.71804 c -0.30368,-0.38606 -0.64457,-1.13634 -0.75754,-1.66728 -0.3798,-1.78506 -0.2512,-56.9279 0.1353,-58.0172 0.76531,-2.15694 1.84541,-2.28822 2.83431,-0.34449 0.62207,1.22271 0.98598,53.52361 0.39936,57.39635 -0.43558,2.87562 -1.54251,3.99154 -2.61143,2.63262 z m 14.61645,-14.37818 c -4.32686,-1.11107 -7.56355,-4.74585 -9.44954,-10.61174 -0.75803,-2.35767 -1.04323,-36.94475 -0.31622,-38.35062 0.70606,-1.36537 2.10997,-1.41569 2.96836,-0.10639 0.44587,0.68008 0.48812,1.94637 0.62068,18.6012 0.1566,19.67438 0.0565,18.47231 1.82773,21.94425 3.3559,6.57811 12.84114,6.29772 16.27624,-0.48113 1.86151,-3.67351 1.75152,-5.00432 -0.47335,-5.72713 -6.9277,-2.25068 -9.70307,-7.20497 -9.70307,-17.32089 v -5.71913 l 0.67434,-0.63351 c 0.55222,-0.51878 1.0194,-0.65226 2.57969,-0.73704 2.65288,-0.14414 2.5668,0.01 2.5668,-4.59231 0,-4.82814 0.24306,-5.49367 2.00952,-5.50241 1.60423,-0.008 1.81089,0.57355 1.95923,5.51299 l 0.13229,4.40483 3.53527,0.074 c 4.57206,0.0957 4.26994,0.42672 4.26994,-4.67776 0,-4.8494 0.16325,-5.31814 1.85209,-5.31814 1.67891,0 1.85208,0.48317 1.85208,5.16767 0,4.87634 -0.0366,4.80925 2.68858,4.93395 3.25701,0.14903 3.13225,-0.1453 3.13225,7.38985 0,10.18284 -2.46506,14.54994 -9.59896,17.00553 -1.80642,0.62179 -2.05212,0.93949 -2.58185,3.33841 -1.08299,4.90448 -3.85449,8.7183 -7.75754,10.67503 -1.71677,0.86067 -6.92351,1.28025 -9.06456,0.73046 z m 19.42024,-19.19375 c 2.13145,-0.97238 4.27021,-3.21894 5.10815,-5.36561 0.72361,-1.85379 1.09643,-9.28547 0.50176,-10.002 -0.48742,-0.5873 -18.55456,-0.5873 -19.04197,0 -0.59861,0.72127 -0.22313,8.16468 0.50073,9.92643 2.18382,5.31506 7.91851,7.72807 12.93133,5.44118 z m -54.863686,18.54001 c -4.340324,-1.61369 -7.321101,-5.20225 -8.710976,-10.48716 -0.927081,-3.52517 -0.852643,-3.39645 -2.201767,-3.80745 -7.660747,-2.33384 -10.488562,-7.33122 -10.315917,-18.23054 0.09899,-6.24938 -0.0074,-6.03656 3.106888,-6.21684 2.706983,-0.1567 2.609672,0.0196 2.710575,-4.91134 l 0.08568,-4.18715 0.742358,-0.63792 c 2.18209,-1.87512 3.0941,-0.44455 3.0941,4.85338 0,5.15298 -0.267628,4.82744 3.96875,4.82744 4.219533,0 3.96875,0.2884 3.96875,-4.56397 0,-5.17492 0.673406,-6.47882 2.813574,-5.44784 0.985066,0.47454 1.097975,1.02739 1.128802,5.52712 0.03024,4.41468 0.06195,4.48469 2.030593,4.48469 3.858151,0 3.898831,0.0856 3.758715,7.90591 -0.100699,5.62028 -0.14793,6.0918 -0.775622,7.74323 -1.556942,4.09625 -4.749723,7.2493 -8.681556,8.57353 -2.555503,0.86068 -2.664399,1.60802 -0.814601,5.59048 3.206354,6.90301 11.983199,7.59593 16.035109,1.26596 2.112554,-3.30028 2.072128,-2.88972 2.226576,-22.61244 0.14729,-18.80861 0.131731,-18.6078 1.467747,-18.94312 2.380558,-0.59748 2.362668,-0.72676 2.454648,17.74061 0.096,19.27053 -0.0416,20.81572 -2.228004,25.02071 -3.099209,5.9606 -9.871537,8.7408 -15.864424,6.51271 z M 77.171306,187.357 c 3.113612,-0.90254 5.872364,-3.56959 6.824184,-6.59734 0.650751,-2.07005 0.824187,-8.60692 0.243759,-9.18735 -0.494561,-0.49456 -18.129143,-0.70068 -18.886069,-0.22075 -0.645114,0.40904 -0.306177,8.28382 0.436538,10.14241 1.821413,4.55797 6.885084,7.16643 11.381588,5.86303 z m -2.578872,-30.6233 c -0.595155,-0.71712 -0.270721,-42.40372 0.339575,-43.63213 0.934168,-1.8803 2.740762,-3.49373 8.594671,-7.6757 3.218429,-2.29922 5.971761,-4.40475 6.118518,-4.67896 0.163348,-0.30522 0.268345,-3.8145 0.27074,-9.048786 0.005,-10.936535 0.350759,-12.595745 2.99991,-14.39589 l 0.936854,-0.636609 h 10.243398 10.24339 l 1.13214,0.663478 c 0.88897,0.520972 1.32018,1.045281 2.00762,2.441071 l 0.87548,1.777592 0.0862,9.729731 0.0862,9.729733 1.5013,1.13792 c 0.82571,0.62586 3.56047,2.60749 6.07724,4.40362 4.74713,3.38787 5.98859,4.56033 6.99831,6.60936 l 0.59658,1.21062 0.0723,20.9998 c 0.0791,22.96169 0.15138,21.90036 -1.47373,21.63664 -2.25007,-0.36514 -3.75556,-2.38248 -3.757,-5.03437 -9.5e-4,-1.75958 -1.07257,-3.60311 -2.09444,-3.60311 -0.5378,0 -1.61071,-2.63626 -1.61071,-3.95769 0,-1.33917 -0.0394,-1.40948 -1.62253,-2.8928 l -1.62252,-1.52026 -0.19417,-2.20845 c -0.20464,-2.32745 -0.29357,-2.48193 -1.92335,-3.34084 -0.97207,-0.5123 -0.93596,-0.71683 -1.05645,5.98254 -0.13297,7.3928 -1.06236,9.65298 -4.34403,10.56425 -1.35127,0.37523 -18.387789,0.37797 -19.737415,0.003 -3.39648,-0.94321 -4.424538,-3.71363 -4.424538,-11.92332 0,-5.56945 -0.0235,-5.63201 -1.685733,-4.48837 -1.35139,0.92978 -1.489267,1.20419 -1.489267,2.96399 0,1.68999 -0.50009,2.85573 -1.617669,3.77088 -0.49273,0.40348 -1.104232,0.90278 -1.358894,1.10954 -0.332936,0.27031 -0.464653,0.76691 -0.468831,1.76758 -0.0072,1.72904 -0.698648,3.30208 -1.874769,4.26522 -0.49365,0.40426 -1.105905,0.90419 -1.360566,1.11095 -0.350244,0.28436 -0.464436,0.77933 -0.468832,2.03216 -0.0093,2.64826 -0.936752,4.23538 -2.971937,5.08573 -1.201948,0.50221 -1.633532,0.51111 -2.023095,0.0417 z m 2.780447,-3.00818 c 0.277462,-0.36551 0.353255,-2.55963 0.359898,-10.41864 0.009,-10.65696 0.06909,-11.14106 1.287363,-10.37342 0.386565,0.24358 0.457132,1.10497 0.573135,6.99612 0.101367,5.14784 0.209604,6.71215 0.463021,6.69188 0.727261,-0.0582 0.818793,-0.13642 1.098596,-0.93907 0.184361,-0.52886 0.290466,-3.56151 0.290466,-8.30198 0,-7.98362 0.104289,-8.62671 1.278949,-7.88652 0.380747,0.23992 0.450705,0.9402 0.513186,5.137 0.07645,5.13513 0.197142,5.66213 1.091824,4.76744 0.533968,-0.53397 0.555625,-0.80631 0.555625,-6.98734 0,-6.79398 0.116297,-7.49536 1.208113,-7.28607 0.465799,0.0893 0.517513,0.37062 0.576751,3.13762 0.0934,4.36265 0.529813,5.35592 1.515633,3.44956 0.48275,-0.93354 0.620698,-26.5707 0.144554,-26.86497 -0.369923,-0.22863 -0.799197,0.0388 -5.473157,3.40966 -7.47823,5.39328 -6.703144,2.35423 -6.703144,26.28252 0,21.02095 -0.01341,20.80995 1.219187,19.18621 z m 54.543499,-18.8204 c 0.0446,-12.56329 -0.0261,-19.49311 -0.20564,-20.15975 -0.56138,-2.08482 -2.94509,-4.21059 -10.28141,-9.16888 -2.30599,-1.55852 -2.21162,-2.13335 -2.09863,12.78333 0.10252,13.53535 0.1622,14.13289 1.41138,14.13289 0.50746,0 0.44596,0.36281 0.62788,-3.70417 l 0.15977,-3.57187 h 0.66146 0.66146 l 0.13229,6.62715 c 0.11616,5.81894 0.19092,6.71651 0.61302,7.35989 0.97921,1.49256 1.22052,0.59805 1.29948,-4.81699 0.0656,-4.50257 0.11311,-4.93781 0.54761,-5.0213 1.19528,-0.22967 1.24406,0.0907 1.24406,8.16954 0,7.60591 0.12614,8.84262 0.93348,9.15242 0.73246,0.28107 0.78436,-0.11482 0.9186,-7.00631 l 0.13229,-6.79149 h 0.66146 0.66146 l 0.13229,10.05417 c 0.13778,10.47124 0.2424,11.38975 1.27463,11.191 0.41152,-0.0792 0.4503,-1.53238 0.51306,-19.22963 z m -17.6228,11.85374 c 1.59902,-0.85577 1.53542,0.50531 1.5418,-32.99392 0.006,-33.232527 0.0729,-31.76071 -1.48197,-32.779256 -0.68077,-0.445954 -1.4853,-0.4836 -10.33492,-0.4836 h -9.596687 l -0.685855,0.685938 c -1.149013,1.149154 -1.165464,1.610027 -1.165464,32.651558 0,31.15453 0.01636,31.60698 1.178904,32.6099 0.78627,0.67831 19.332972,0.95761 20.544192,0.30938 z M 98.210903,74.419567 c -0.305198,-0.795335 0.180461,-2.21548 0.990838,-2.897367 1.114199,-0.937534 9.202049,-1.060379 10.350249,-0.157209 0.78955,0.621061 1.33914,1.837817 1.21767,2.695826 l -0.0878,0.620433 -6.15799,0.07104 c -5.320189,0.06137 -6.179069,0.01611 -6.312927,-0.332721 z"
         id="path300" /><path
         style="fill:#747474"
         d="m 102.10375,216.74045 c 0.0127,-0.30822 0.0754,-0.37092 0.15985,-0.15985 0.0764,0.19099 0.067,0.4192 -0.0209,0.50712 -0.0879,0.0879 -0.15045,-0.0683 -0.13896,-0.34727 z m 18.83067,-10.08221 c 0.25466,-0.0666 0.67138,-0.0666 0.92604,0 0.25467,0.0666 0.0463,0.121 -0.46302,0.121 -0.50932,0 -0.71768,-0.0544 -0.46302,-0.121 z m -34.373782,-0.25859 c 0.09701,-0.097 0.255764,-0.097 0.352778,0 0.09701,0.097 0.01764,0.17639 -0.176389,0.17639 -0.194028,0 -0.273403,-0.0794 -0.176389,-0.17639 z M 71.477309,185.02331 c -1.571336,-0.68349 -1.795132,-1.37764 -1.900526,-5.89482 -0.1422,-6.09471 -0.344426,-5.88084 5.565824,-5.88634 4.238509,-0.004 5.03108,0.2348 4.440836,1.33768 -0.249764,0.46669 -0.587826,0.51079 -3.915308,0.51079 -4.538473,0 -4.276941,-0.25203 -4.276941,4.12157 0,4.41167 -0.238461,4.18501 4.528257,4.30411 3.861917,0.0965 4.587464,0.39533 3.663288,1.5089 -0.440564,0.53084 -6.884141,0.52935 -8.10543,-0.002 z m 61.029731,-0.73841 c -0.28836,-0.47295 -0.52473,-0.93577 -0.52527,-1.0285 -0.001,-0.18024 -3.00156,-6.63036 -3.48248,-7.48622 -0.85673,-1.52466 -0.64937,-2.7803 0.39309,-2.38027 0.43005,0.16503 0.54071,0.37158 2.78937,5.20644 1.80053,3.87135 1.84138,3.86077 4.19792,-1.08714 1.7645,-3.70485 2.49674,-4.666 3.09724,-4.0655 0.43757,0.43756 0.20369,1.03279 -3.37605,8.59223 -1.64651,3.477 -2.13054,3.82885 -3.09382,2.24896 z m -59.901479,-4.5976 c -0.350026,-0.91216 0.320126,-1.15709 3.165825,-1.15709 2.786269,0 3.509679,0.32972 2.897312,1.32055 -0.302449,0.48937 -5.870222,0.33927 -6.063137,-0.16346 z m 34.861419,-1.68626 c 0,-1.23693 0.0456,-1.74294 0.10128,-1.12448 0.0557,0.61847 0.0557,1.6305 0,2.24896 -0.0557,0.61846 -0.10128,0.11245 -0.10128,-1.12448 z m -5.38412,-14.2875 c 0,-0.19403 0.0794,-0.2734 0.17639,-0.17639 0.097,0.097 0.097,0.25577 0,0.35278 -0.097,0.097 -0.17639,0.0176 -0.17639,-0.17639 z m -3.430274,-23.53052 c -0.46572,-0.87021 -0.359738,-10.72927 0.119613,-11.1271 0.84384,-0.70032 1.193994,-0.12718 1.193994,1.95438 0,2.75353 0.07269,2.80533 3.937077,2.80533 3.96554,0 4.0884,-0.0776 4.11381,-2.59755 0.0195,-1.93739 0.32896,-2.621 1.05945,-2.34068 0.64788,0.24861 0.62255,11.41642 -0.0265,11.66547 -0.70517,0.27059 -0.90983,-0.17948 -1.02773,-2.26017 -0.14557,-2.56875 -0.2184,-2.61499 -4.11908,-2.61499 -3.81895,0 -3.937077,0.0784 -3.937077,2.61181 0,2.17459 -0.658134,3.12826 -1.313607,1.9035 z m -0.0975,-21.09587 c -0.292695,-0.29269 -0.195055,-6.49262 0.120129,-7.62794 0.383245,-1.38049 2.160325,-3.15757 3.540805,-3.54082 1.47463,-0.40938 6.25928,-0.385 6.83342,0.0348 0.72387,0.52931 0.54706,11.12548 -0.188,11.26678 -0.59726,0.1148 -0.94819,-0.36838 -0.9537,-1.31311 -0.007,-1.18449 -0.44639,-1.31106 -4.27399,-1.23091 l -3.53526,0.074 -0.0741,0.66146 c -0.193119,1.72462 -0.766493,2.37852 -1.469324,1.67569 z m 9.090114,-4.85069 c 0.54544,-0.86454 0.3096,-4.16753 -0.32954,-4.61521 -0.82976,-0.58118 -3.49037,-0.53069 -4.8621,0.0923 -2.05768,0.93449 -3.364729,4.17679 -1.92601,4.77769 1.03116,0.43068 6.81583,0.22364 7.11765,-0.25475 z M 101.16782,98.553299 C 98.987698,97.31848 98.523506,96.1956 98.421139,91.90907 c -0.07617,-3.189538 -0.02582,-3.815361 0.330729,-4.111275 0.924672,-0.767409 1.214325,0.05859 1.214325,3.462851 0,5.008712 1.056027,6.307063 5.129937,6.307063 2.85299,0 2.80756,0.08326 2.80756,-5.145877 0,-4.586234 0.22105,-5.448382 1.19063,-4.643707 0.40925,0.339651 0.61682,9.966874 0.23627,10.958569 -0.2833,0.738283 -6.79375,0.592011 -8.16277,-0.183395 z M 99.503173,76.467591 c 2.582997,-0.04332 6.809717,-0.04332 9.392707,0 2.583,0.04332 0.46964,0.07876 -4.69635,0.07876 -5.165993,0 -7.279352,-0.03544 -4.696357,-0.07876 z"
         id="path299" /></g></g></svg>
